<?xml version="1.0"?>
<svg xmlns="http://www.w3.org/2000/svg" xmlns:xlink="http://www.w3.org/1999/xlink" version="1.1" viewBox="0 0 210 210" width="48px" height="48px"><g fill="none" fill-rule="nonzero" stroke="none" stroke-width="1" stroke-linecap="butt" stroke-linejoin="miter" stroke-miterlimit="10" stroke-dasharray="" stroke-dashoffset="0" font-family="none" font-weight="none" font-size="none" text-anchor="none" style="mix-blend-mode: normal"><path d="M0,210v-210h210v210z" fill="none"/><g id="Layer_1"><path d="M100.20062,14.37625c2.97062,-1.66687 6.62813,-1.66687 9.59438,0c14.67812,8.23813 58.84813,33.03563 73.53063,41.27375c2.97063,1.6625 4.79937,4.7425 4.79937,8.07625c0,16.47625 0,66.06688 0,82.54313c0,3.33375 -1.82875,6.41375 -4.79937,8.08062c-14.67812,8.23813 -58.84813,33.03563 -73.53062,41.27375c-2.97062,1.66688 -6.62812,1.66688 -9.59438,0c-14.67812,-8.23813 -58.84812,-33.03563 -73.53062,-41.27375c-2.96625,-1.66687 -4.795,-4.7425 -4.795,-8.07625c0,-16.47625 0,-66.06687 0,-82.54312c0,-3.33375 1.82875,-6.41375 4.79937,-8.08062c14.67375,-8.23812 58.8525,-33.03562 73.52625,-41.27375z" fill="#6a1577"/><path d="M23.205,150.5175c-1.16375,-1.5575 -1.33,-3.03625 -1.33,-5.02687c0,-16.38 0,-65.68625 0,-82.07063c0,-3.31625 1.82438,-6.37875 4.78625,-8.0325c14.62563,-8.19 58.64687,-32.84312 73.2725,-41.0375c2.96188,-1.65812 6.97375,-1.62312 9.93563,0.035c14.62563,8.19 58.49812,32.63312 73.12375,40.82312c1.18125,0.665 2.0825,1.46563 2.8875,2.52z" fill="#9a4993"/><path d="M105,43.75c-33.81875,0 -61.25,27.43125 -61.25,61.25c0,33.81875 27.43125,61.25 61.25,61.25c33.81875,0 61.25,-27.43125 61.25,-61.25c0,-33.81875 -27.43125,-61.25 -61.25,-61.25zM105,135.625c-16.8875,0 -30.625,-13.7375 -30.625,-30.625c0,-16.8875 13.7375,-30.625 30.625,-30.625c16.8875,0 30.625,13.7375 30.625,30.625c0,16.8875 -13.7375,30.625 -30.625,30.625z" fill="#ffffff"/><path d="M185.87188,57.77188c2.2575,2.11313 2.21375,5.29812 2.21375,7.805c0,16.60312 -0.14,63.82688 0.03938,80.43c0.0175,1.7325 -0.55563,3.55688 -1.41313,4.93063l-83.4925,-45.9375z" fill="#813084"/><rect x="34" y="20" transform="scale(4.375,4.375)" width="1" height="8" fill="#ffffff"/><rect x="37" y="20" transform="scale(4.375,4.375)" width="1" height="8" fill="#ffffff"/><rect x="32" y="25" transform="scale(4.375,4.375)" width="8" height="1" fill="#ffffff"/><rect x="32" y="22" transform="scale(4.375,4.375)" width="8" height="1" fill="#ffffff"/></g></g></svg>
